<?xml version="1.0" encoding="utf-8"?>
<!-- Generator: Adobe Illustrator 22.1.0, SVG Export Plug-In . SVG Version: 6.00 Build 0)  -->
<svg version="1.1"
	 id="Ebene_1" xmlns:cc="http://creativecommons.org/ns#" xmlns:dc="http://purl.org/dc/elements/1.1/" xmlns:rdf="http://www.w3.org/1999/02/22-rdf-syntax-ns#"
	 xmlns="http://www.w3.org/2000/svg" xmlns:xlink="http://www.w3.org/1999/xlink" x="0px" y="0px" viewBox="0 0 144 144"
	 style="enable-background:new 0 0 144 144;" xml:space="preserve">
<style type="text/css">
	.st0{fill:#F58410;stroke:#005F6A;stroke-width:1.455;}
	.st1{fill:#FFFFFF;}
	.st2{font-family:'Helvetica-Bold';}
	.st3{font-size:24.0001px;}
	.st4{letter-spacing:5;}
	.st5{fill:#F58410;stroke:#005F6A;stroke-width:1.2315;}
	.st6{fill:#F58410;stroke:#005F6A;stroke-width:0.7937;}
</style>
<path class="st0" d="M41.8,124.6l-29.9-17.4l0.1-35l0.1-35L72,2.4l60,34.8l0.1,70l-30,17.4c-16.5,9.6-30.1,17.4-30.2,17.4
	C71.8,141.9,58.3,134.1,41.8,124.6L41.8,124.6z"/>
<text transform="matrix(1 0 0 1 25.9407 53.2377)" class="st1 st2 st3">S</text>
<text transform="matrix(1 0 0 1 25.9407 80.7377)" class="st1 st2 st3">D</text>
<text transform="matrix(1 0 0 1 25.9407 108.2377)" class="st1 st2 st3 st4">M</text>
<text transform="matrix(1 0 0 1 51.6028 115.3237)" class="st1 st2 st3 st4">t</text>
<text transform="matrix(1 0 0 1 65.2639 129.4975)" class="st1 st2 st3 st4">u</text>
<text transform="matrix(1 0 0 1 85.593 115.3237)" class="st1 st2 st3 st4">n</text>
<text transform="matrix(1 0 0 1 105.9231 108.2377)" class="st1 st2 st3 st4">e</text>
<g transform="translate(-82.518 -98.36)">
	<path class="st5" d="M146.2,148.2h37.5c0.1,0,0.1,0.1,0.1,0.1v0c0,0.1-0.1,0.1-0.1,0.1h-37.5c-0.1,0-0.1-0.1-0.1-0.1v0
		C146,148.3,146.1,148.2,146.2,148.2z"/>
	<circle class="st6" cx="153.1" cy="148.4" r="3"/>
	<path class="st5" d="M183.7,174.2h-37.5c-0.1,0-0.1,0.1-0.1,0.1v0c0,0.1,0.1,0.1,0.1,0.1h37.5c0.1,0,0.1-0.1,0.1-0.1v0
		C183.8,174.2,183.8,174.2,183.7,174.2z"/>
	<circle class="st6" cx="154.9" cy="174.3" r="3"/>
	<path class="st5" d="M146.2,165.5h37.5c0.1,0,0.1,0.1,0.1,0.1v0c0,0.1-0.1,0.1-0.1,0.1h-37.5c-0.1,0-0.1-0.1-0.1-0.1v0
		C146,165.6,146.1,165.5,146.2,165.5z"/>
	<circle class="st6" cx="167.2" cy="165.6" r="3"/>
	<path class="st5" d="M146.2,156.9h37.5c0.1,0,0.1,0.1,0.1,0.1v0c0,0.1-0.1,0.1-0.1,0.1h-37.5c-0.1,0-0.1-0.1-0.1-0.1v0
		C146,156.9,146.1,156.9,146.2,156.9z"/>
	<circle class="st6" cx="176.8" cy="157" r="3"/>
</g>
</svg>
